<svg xmlns="http://www.w3.org/2000/svg" viewBox="0 0 100 100" width="100" height="100" fill="none" color="#1f1b16">
  
  <rect width="100" height="100" fill="#7a1e1e"></rect>
  
  <line x1="10" y1="0" x2="10" y2="100" stroke="#8a2a2a" stroke-width="1" opacity="0.3"></line>
  <line x1="20" y1="0" x2="20" y2="100" stroke="#6a1414" stroke-width="1" opacity="0.25"></line>
  <line x1="30" y1="0" x2="30" y2="100" stroke="#8a2a2a" stroke-width="1" opacity="0.3"></line>
  <line x1="40" y1="0" x2="40" y2="100" stroke="#6a1414" stroke-width="1" opacity="0.25"></line>
  <line x1="50" y1="0" x2="50" y2="100" stroke="#8a2a2a" stroke-width="1" opacity="0.3"></line>
  <line x1="60" y1="0" x2="60" y2="100" stroke="#6a1414" stroke-width="1" opacity="0.25"></line>
  <line x1="70" y1="0" x2="70" y2="100" stroke="#8a2a2a" stroke-width="1" opacity="0.3"></line>
  <line x1="80" y1="0" x2="80" y2="100" stroke="#6a1414" stroke-width="1" opacity="0.25"></line>
  <line x1="90" y1="0" x2="90" y2="100" stroke="#8a2a2a" stroke-width="1" opacity="0.3"></line>
  
  <rect x="4" y="4" width="92" height="92" fill="none" stroke="#b08838" stroke-width="2"></rect>
  <rect x="8" y="8" width="84" height="84" fill="none" stroke="#b08838" stroke-width="0.8" opacity="0.5"></rect>
  
  <circle cx="12" cy="12" r="3" fill="#b08838" opacity="0.7"></circle>
  <circle cx="88" cy="12" r="3" fill="#b08838" opacity="0.7"></circle>
  <circle cx="12" cy="88" r="3" fill="#b08838" opacity="0.7"></circle>
  <circle cx="88" cy="88" r="3" fill="#b08838" opacity="0.7"></circle>
</svg>