<svg xmlns="http://www.w3.org/2000/svg" viewBox="0 0 100 100" width="100" height="100" fill="none" color="#1f1b16">
  
  
  <rect x="0" y="0" width="100" height="50" fill="#3a342c"></rect>
  
  <rect x="25" y="50" width="50" height="50" fill="#3a342c"></rect>
  
  <line x1="0" y1="20" x2="100" y2="20" stroke="#5e564a" stroke-width="1.5"></line>
  <line x1="0" y1="40" x2="100" y2="40" stroke="#5e564a" stroke-width="1.5"></line>
  <line x1="18" y1="0" x2="18" y2="20" stroke="#5e564a" stroke-width="1.5"></line>
  <line x1="42" y1="0" x2="42" y2="20" stroke="#5e564a" stroke-width="1.5"></line>
  <line x1="68" y1="0" x2="68" y2="20" stroke="#5e564a" stroke-width="1.5"></line>
  <line x1="88" y1="0" x2="88" y2="20" stroke="#5e564a" stroke-width="1.5"></line>
  
  <line x1="35" y1="50" x2="35" y2="100" stroke="#5e564a" stroke-width="1.5"></line>
  <line x1="55" y1="50" x2="55" y2="100" stroke="#5e564a" stroke-width="1.5"></line>
  <line x1="25" y1="65" x2="35" y2="65" stroke="#5e564a" stroke-width="1.5"></line>
  <line x1="55" y1="72" x2="75" y2="72" stroke="#5e564a" stroke-width="1.5"></line>
  <line x1="35" y1="85" x2="55" y2="85" stroke="#5e564a" stroke-width="1.5"></line>
  
  <rect x="0" y="0" width="100" height="8" fill="#2a241e"></rect>
  <rect x="25" y="46" width="8" height="54" fill="rgba(31,27,22,0.35)"></rect>
  <rect x="67" y="46" width="8" height="54" fill="rgba(31,27,22,0.35)"></rect>
  <rect x="8" y="46" width="17" height="8" fill="rgba(31,27,22,0.35)"></rect>
  <rect x="75" y="46" width="17" height="8" fill="rgba(31,27,22,0.35)"></rect>
</svg>