<svg xmlns="http://www.w3.org/2000/svg" viewBox="0 0 100 100" width="100" height="100" fill="none" color="#1f1b16">
  
  <rect width="100" height="100" fill="#6a4a2a"></rect>
  
  <rect x="0" y="0" width="100" height="12" fill="#7a5a3a" stroke="#4a2e18" stroke-width="1"></rect>
  <rect x="0" y="13" width="100" height="12" fill="#6a4a2a" stroke="#4a2e18" stroke-width="1"></rect>
  <rect x="0" y="26" width="100" height="12" fill="#7a5a3a" stroke="#4a2e18" stroke-width="1"></rect>
  <rect x="0" y="39" width="100" height="12" fill="#6a4a2a" stroke="#4a2e18" stroke-width="1"></rect>
  <rect x="0" y="52" width="100" height="12" fill="#7a5a3a" stroke="#4a2e18" stroke-width="1"></rect>
  <rect x="0" y="65" width="100" height="12" fill="#6a4a2a" stroke="#4a2e18" stroke-width="1"></rect>
  <rect x="0" y="78" width="100" height="12" fill="#7a5a3a" stroke="#4a2e18" stroke-width="1"></rect>
  <rect x="0" y="91" width="100" height="9" fill="#6a4a2a" stroke="#4a2e18" stroke-width="1"></rect>
  
  <line x1="30" y1="0" x2="30" y2="100" stroke="#4a2e18" stroke-width="1" opacity="0.5"></line>
  <line x1="65" y1="0" x2="65" y2="100" stroke="#4a2e18" stroke-width="1" opacity="0.5"></line>
  
  <rect width="100" height="100" fill="rgba(60,90,120,0.10)"></rect>
  
  <circle cx="29" cy="6" r="1.5" fill="#3a2418"></circle>
  <circle cx="64" cy="6" r="1.5" fill="#3a2418"></circle>
  <circle cx="29" cy="45" r="1.5" fill="#3a2418"></circle>
  <circle cx="64" cy="45" r="1.5" fill="#3a2418"></circle>
  <circle cx="29" cy="84" r="1.5" fill="#3a2418"></circle>
  <circle cx="64" cy="84" r="1.5" fill="#3a2418"></circle>
</svg>